<svg width="40" height="40" viewBox="0 0 40 40" fill="none" xmlns="http://www.w3.org/2000/svg">
<path d="M32.15 28.8167L30 26.6667V18.3333C30 13.2167 27.2667 8.93332 22.5 7.79999V6.66666C22.5 5.28332 21.3834 4.16666 20 4.16666C18.6167 4.16666 17.5 5.28332 17.5 6.66666V7.79999C12.7167 8.93332 10 13.2 10 18.3333V26.6667L7.85002 28.8167C6.80002 29.8667 7.53336 31.6667 9.01669 31.6667H30.9667C32.4667 31.6667 33.2 29.8667 32.15 28.8167ZM26.6667 28.3333H13.3334V18.3333C13.3334 14.2 15.85 10.8333 20 10.8333C24.15 10.8333 26.6667 14.2 26.6667 18.3333V28.3333ZM20 36.6667C21.8334 36.6667 23.3334 35.1667 23.3334 33.3333H16.6667C16.6667 34.2174 17.0179 35.0652 17.643 35.6903C18.2681 36.3155 19.116 36.6667 20 36.6667Z" fill="#E7E2E2" fill-opacity="0.81"/>
</svg>
