<svg width="40" height="40" viewBox="0 0 40 40" fill="none" xmlns="http://www.w3.org/2000/svg">
<path d="M10.142 6.486C10.2309 6.33776 10.3566 6.21507 10.507 6.12989C10.6573 6.04472 10.8272 5.99996 11 6H29C29.1728 5.99996 29.3427 6.04472 29.4931 6.12989C29.6435 6.21507 29.7692 6.33776 29.858 6.486L35.858 16.486C35.9645 16.6639 36.0131 16.8706 35.997 17.0773C35.9808 17.2841 35.9008 17.4807 35.768 17.64L34.954 18.616C34.4047 17.8086 33.6659 17.148 32.8023 16.692C31.9387 16.236 30.9766 15.9984 30 16H33.234L28.434 8H24.476L27.676 16H30C28.222 16 26.626 16.772 25.528 18H14.46L20 32.24L20.06 32.086L20.08 32.26C20.2164 33.3213 20.5487 34.3481 21.06 35.288L20.768 35.64C20.6742 35.7525 20.5567 35.8431 20.424 35.9052C20.2913 35.9673 20.1466 35.9995 20 35.9995C19.8535 35.9995 19.7087 35.9673 19.576 35.9052C19.4433 35.8431 19.3259 35.7525 19.232 35.64L4.23203 17.64C4.09922 17.4807 4.01921 17.2841 4.00309 17.0773C3.98696 16.8706 4.03552 16.6639 4.14203 16.486L10.142 6.486ZM11.566 8L6.76603 16H12.324L15.524 8H11.566ZM16.85 29.658L12.316 18H7.13603L16.85 29.658ZM17.678 8L14.478 16H25.522L22.322 8H17.68H17.678ZM22.472 33.596C22.2714 33.0827 22.1344 32.5467 22.064 32C22.0209 31.6684 21.9995 31.3344 22 31C22 30.2044 22.3161 29.4413 22.8787 28.8787C23.4413 28.3161 24.2044 28 25 28H35C35.7957 28 36.5587 28.3161 37.1213 28.8787C37.684 29.4413 38 30.2044 38 31C38 33.232 37.082 35.02 35.576 36.23C34.094 37.42 32.106 38 30 38C27.894 38 25.906 37.42 24.424 36.23C23.5542 35.5378 22.8812 34.6296 22.472 33.596ZM27.262 19.084C27.98 18.412 28.942 18 30 18C30.8125 17.9984 31.6061 18.2454 32.274 18.708C32.8056 19.0772 33.2401 19.5693 33.5406 20.1424C33.8411 20.7156 33.9987 21.3528 34 22C34 23.0609 33.5786 24.0783 32.8285 24.8284C32.0783 25.5786 31.0609 26 30 26C28.9392 26 27.9217 25.5786 27.1716 24.8284C26.4215 24.0783 26 23.0609 26 22C26 20.85 26.486 19.814 27.262 19.084Z" fill="#E7E2E2" fill-opacity="0.81"/>
</svg>
